<?xml version="1.0" standalone="no"?>
<!DOCTYPE svg PUBLIC "-//W3C//DTD SVG 20010904//EN"
 "http://www.w3.org/TR/2001/REC-SVG-20010904/DTD/svg10.dtd">
<svg version="1.0" xmlns="http://www.w3.org/2000/svg"
 width="500.000000pt" height="500.000000pt" viewBox="0 0 500.000000 500.000000"
 preserveAspectRatio="xMidYMid meet">

<g transform="translate(0.000000,500.000000) scale(0.100000,-0.100000)"
fill="#000000" stroke="none">
<path d="M667 4569 c-94 -22 -188 -104 -223 -194 -18 -49 -19 -100 -19 -1875
0 -1778 0 -1826 19 -1875 26 -65 103 -147 169 -176 l52 -24 1835 0 1835 0 47
22 c66 30 141 104 169 166 l24 52 0 1835 0 1835 -28 56 c-32 66 -99 132 -165
162 l-47 22 -1815 2 c-1038 0 -1831 -3 -1853 -8z m1972 -664 c125 -33 238
-118 299 -225 66 -114 21 -221 -93 -222 -51 -1 -90 21 -113 64 -51 93 -120
137 -215 138 -135 0 -230 -92 -231 -225 -1 -179 181 -282 347 -196 67 35 115
39 157 15 59 -35 78 -119 41 -180 -42 -68 -186 -124 -322 -124 -165 0 -309 79
-416 229 -12 16 -152 -79 -242 -164 -132 -125 -222 -280 -262 -450 -12 -49
-25 -107 -31 -128 -36 -148 -236 -166 -292 -26 -14 34 -15 53 -7 117 52 416
272 720 659 910 94 46 112 59 112 78 0 38 39 130 82 195 42 63 132 138 198
167 99 43 230 54 329 27z m637 -539 c74 -49 242 -217 291 -291 143 -214 201
-430 190 -714 l-5 -156 53 -55 c113 -120 161 -291 124 -450 -29 -125 -139
-268 -250 -323 -110 -55 -242 -73 -314 -43 -65 28 -93 112 -60 177 24 46 70
69 140 69 138 1 235 99 235 238 0 48 -6 67 -32 112 -106 176 -370 131 -418
-70 -7 -28 -9 -57 -6 -65 19 -50 -44 -138 -106 -148 -48 -7 -113 23 -134 64
-20 40 -22 151 -4 219 50 184 215 334 399 363 l71 11 0 76 c0 159 -48 332
-132 475 -40 68 -80 117 -165 202 -63 61 -120 127 -128 146 -28 67 7 151 78
187 56 28 104 21 173 -24z m-1494 -1132 c28 -14 73 -47 101 -72 148 -138 198
-335 133 -526 -31 -90 -38 -78 76 -136 123 -63 232 -91 378 -97 147 -6 233 5
360 48 105 35 159 36 208 1 69 -50 82 -164 26 -223 -38 -41 -77 -60 -209 -102
-146 -47 -250 -61 -399 -54 -234 11 -457 95 -671 255 -30 22 -32 22 -74 7
-163 -57 -365 -8 -493 121 -158 158 -193 386 -90 584 54 104 147 132 218 67
53 -48 57 -103 15 -182 -89 -167 14 -349 199 -350 54 0 73 5 112 28 132 77
153 253 43 363 -25 24 -51 44 -59 44 -20 0 -76 67 -77 93 -4 71 13 106 64 137
43 27 78 25 139 -6z"/>
</g>
</svg>
